<?xml version="1.0" encoding="UTF-8"?>
<svg id="Layer_1" data-name="Layer 1" xmlns="http://www.w3.org/2000/svg" viewBox="0 0 150 60">
  <defs>
    <style>
      .cls-1 {
        stroke-width: 0px;
      }
    </style>
  </defs>
  <g>
    <path class="cls-1" d="m28.59,26.31c0-2.97-.04-4.24-.04-4.81h1.73c.04.57.07,1.7.07,3.96,1.03-2.65,3.29-4.24,6.15-4.38v1.91c-3.68.25-6.15,2.79-6.15,7v9.19h-1.77v-12.87Z"/>
    <path class="cls-1" d="m40.14,30.55c.04,4.56,2.33,7.39,5.73,7.39s4.45-1.87,5.09-3.32h1.8c-.74,2.33-2.62,4.98-6.96,4.98-5.37,0-7.46-4.63-7.46-9.12,0-5.05,2.51-9.4,7.67-9.4,5.44,0,7.17,4.7,7.17,8.02,0,.49,0,.99-.04,1.45h-13.01Zm11.2-1.56c-.04-3.5-1.94-6.26-5.41-6.26-3.64,0-5.3,2.54-5.69,6.26h11.1Z"/>
    <path class="cls-1" d="m57.81,21.51c2.62,9.12,4.14,14.35,4.42,15.9h.04c.28-1.41,2.05-6.96,4.81-15.9h1.91c3.29,10.92,4.28,14.07,4.59,15.45h.04c.49-1.94,1.31-4.59,4.56-15.45h1.87l-5.58,17.67h-1.94c-1.91-6.26-4.21-13.93-4.56-15.55h-.04c-.35,1.73-2.37,8.06-4.67,15.55h-2.12l-5.2-17.67h1.87Z"/>
    <path class="cls-1" d="m83.79,15.78h1.77v2.99h-1.77v-2.99Zm0,5.73h1.77v17.67h-1.77v-17.67Z"/>
    <path class="cls-1" d="m91.35,25.96c0-1.56,0-3.04-.04-4.45h1.73c.07.57.11,2.86.07,3.36.78-1.8,2.23-3.78,5.87-3.78,3.15,0,5.94,1.77,5.94,6.64v11.45h-1.77v-11.17c0-3.15-1.31-5.2-4.38-5.2-4.21,0-5.66,3.5-5.66,7.35v9.01h-1.77v-13.22Z"/>
    <path class="cls-1" d="m92.76,5.8c0,.22,26.04.46,29.36.4,1.27-.02,2.28.58,2.24,1.44-.25,6.42-.04,28.82.03,31.53h-1.7c-.07-.42-.11-2.09-.11-2.97-3.63,6.9-14.05,2.8-13.29-5.66-.65-8.4,9.28-12.79,13.29-6.82v-15.18c0-.5-.41-.92-.91-.92l-28.92-.37v-1.46Zm18.42,24.68c-.06,10.8,12.69,9.27,11.49-.57,1.02-9.91-11.96-9.6-11.49.57Z"/>
  </g>
  <polygon class="cls-1" points="93.88 9.55 91.19 8.02 88.49 6.5 91.16 4.92 93.83 3.35 93.86 6.45 93.88 9.55"/>
  <path class="cls-1" d="m30.35,36.27v15.18c0,.5.41.92.91.92l28.92.37v1.46c0-.22-26.04-.46-29.36-.4-1.27.02-2.28-.58-2.24-1.44.25-6.42.04-12.89-.03-15.61"/>
  <polygon class="cls-1" points="59.07 50.45 61.77 51.98 64.46 53.5 61.79 55.08 59.12 56.65 59.1 53.55 59.07 50.45"/>
</svg>